<?xml version="1.0" encoding="UTF-8"?>
<svg width="65px" height="94px" viewBox="0 0 65 94" version="1.1" xmlns="http://www.w3.org/2000/svg" xmlns:xlink="http://www.w3.org/1999/xlink">
    <!-- Generator: Sketch 52.5 (67469) - http://www.bohemiancoding.com/sketch -->
    <title>by_person</title>
    <desc>Created with Sketch.</desc>
    <defs>
        <polygon id="path-1" points="0 64 65.0537931 64 65.0537931 0 0 0"></polygon>
    </defs>
    <g id="Page-1" stroke="none" stroke-width="1" fill="none" fill-rule="evenodd">
        <g id="Main-Menu" transform="translate(-169.000000, -397.000000)">
            <g id="by_person" transform="translate(166.000000, 397.000000)">
                <text id="By-Person" font-family="Helvetica-Bold, Helvetica" font-size="12" font-weight="bold" fill="#000000">
                    <tspan x="5.65426562" y="91">By Person</tspan>
                </text>
                <g id="Group-25" transform="translate(3.000000, 0.000000)">
                    <path d="M1.10355862,63.9998345 L1.10355862,50.7584552 C1.10355862,47.1021793 4.06742069,44.1377655 7.72424828,44.1377655 L20.9656276,44.1377655 L27.2602483,52.7932138 C28.9065931,55.0569379 29.7932138,57.7830069 29.7932138,60.5819034 L29.7932138,63.9998345 L1.10355862,63.9998345 Z" id="Fill-1" fill="#606866"></path>
                    <path d="M7.72424828,44.1377655 C4.06742069,44.1377655 1.10355862,47.1021793 1.10355862,50.7584552 L1.10355862,63.9998345 L14.3449379,63.9998345 L14.3449379,50.7584552 C14.3449379,47.1021793 11.3805241,44.1377655 7.72424828,44.1377655" id="Fill-3" fill="#A5AAAA"></path>
                    <path d="M32.0001103,16.5515586 C32.0001103,25.0834207 25.0836966,31.9998345 16.5518345,31.9998345 C8.01997241,31.9998345 1.10355862,25.0834207 1.10355862,16.5515586 C1.10355862,8.01969655 8.01997241,1.10328276 16.5518345,1.10328276 C20.7609379,1.10328276 27.5863172,1.10328276 27.5863172,1.10328276 L32.0001103,16.5515586 Z" id="Fill-5" fill="#606866"></path>
                    <path d="M16.5518345,16.5515586 C16.5518345,18.9896276 14.5755586,20.9653517 12.1380414,20.9653517 C9.69997241,20.9653517 7.72424828,18.9896276 7.72424828,16.5515586 C7.72424828,14.1140414 9.69997241,12.1377655 12.1380414,12.1377655 C14.5755586,12.1377655 16.5518345,14.1140414 16.5518345,16.5515586" id="Fill-7" fill="#FFFFFE"></path>
                    <path d="M6.6208,44.1377655 L20.9656276,44.1377655 L20.9656276,36.4136276 L28.6897655,36.4136276 L29.7932138,35.3101793 L29.7932138,25.3791448 L34.2070069,24.2756966 L34.2070069,23.1722483 L28.6897655,5.51707586 L27.5863172,5.51707586 C23.9294897,5.51707586 20.9656276,8.48148966 20.9656276,12.1377655 L12.3278345,12.1377655 C10.0221793,12.1377655 7.96424828,13.8232828 7.74466207,16.1184552 C7.49362759,18.750731 9.55707586,20.9653517 12.1380414,20.9653517 L12.1380414,22.0003862 C12.1380414,24.7076966 10.4900414,27.1419034 7.97583448,28.1476966 L6.6208,28.6894897 L6.6208,44.1377655 Z" id="Fill-9" fill="#F6F6F5"></path>
                    <path d="M38.5426759,43.3791448 C38.5426759,50.3110069 44.1625379,55.930869 51.0944,55.930869 C58.0262621,55.930869 63.6461241,50.3110069 63.6461241,43.3791448 C63.6461241,36.4472828 58.0262621,30.8274207 51.0944,30.8274207 L42.1288828,30.8274207 L38.5426759,43.3791448 Z" id="Fill-11" fill="#E4866A"></path>
                    <path d="M59.1633655,63.9998345 L47.5081931,63.9998345 L47.5081931,59.5170759 L41.232331,59.5170759 L40.3357793,58.6205241 L40.3357793,50.5515586 L36.7495724,49.6550069 L36.7495724,48.7584552 L41.232331,34.4136276 L42.1288828,34.4136276 C45.0999172,34.4136276 47.5081931,36.8219034 47.5081931,39.7929379 L54.5266759,39.7929379 C56.3997793,39.7929379 58.0720552,41.1623172 58.2502621,43.0265931 C58.4544,45.1656276 56.7777103,46.9653517 54.6806069,46.9653517 L54.6806069,47.8061793 C54.6806069,50.0059034 56.0201931,51.9843862 58.0621241,52.8009379 L59.1633655,53.2412138 L59.1633655,63.9998345 Z" id="Fill-13" fill="#E4E4E1"></path>
                    <mask id="mask-2" fill="white">
                        <use xlink:href="#path-1"></use>
                    </mask>
                    <g id="Clip-16"></g>
                    <polygon id="Fill-15" fill="#3A403F" mask="url(#mask-2)" points="5.51724138 44.137931 7.72413793 44.137931 7.72413793 28.6896552 5.51724138 28.6896552"></polygon>
                    <path d="M29.1466483,37.5170759 L16.5518897,37.5170759 L16.5518897,35.3101793 L28.2329931,35.3101793 L28.6898207,34.8533517 L28.6898207,24.5173517 L33.1036138,23.4139034 L33.1036138,23.3410759 L27.8782345,6.62052414 L27.5863724,6.62052414 C24.5441655,6.62052414 22.069131,9.09555862 22.069131,12.1377655 L22.069131,13.2412138 L12.1380966,13.2412138 C10.3124414,13.2412138 8.82775172,14.7259034 8.82775172,16.5515586 C8.82775172,18.3772138 10.3124414,19.8619034 12.1380966,19.8619034 L12.1380966,22.0688 C9.09588966,22.0688 6.62085517,19.5937655 6.62085517,16.5515586 C6.62085517,13.5093517 9.09588966,11.0343172 12.1380966,11.0343172 L19.9405793,11.0343172 C20.4779586,7.29638621 23.7016828,4.41362759 27.5863724,4.41362759 L29.5014069,4.41362759 L35.3105103,23.1722483 L35.3105103,25.1374897 L30.8967172,26.2409379 L30.8967172,35.7670069 L29.1466483,37.5170759 Z" id="Fill-17" fill="#3A403F" mask="url(#mask-2)"></path>
                    <path d="M10.3971862,31.9212138 C4.0816,29.3893517 -5.51724138e-05,23.3568 -5.51724138e-05,16.5518345 C-5.51724138e-05,7.43790345 7.42449655,0.0128 16.5500138,0.000110344828 L31.9999448,0.000110344828 L31.9999448,2.2070069 L16.551669,2.2070069 C8.64270345,2.21748966 2.20684138,8.6528 2.20684138,16.5518345 C2.20684138,22.4497655 5.74394483,27.6790069 11.2181517,29.8726621 L10.3971862,31.9212138 Z" id="Fill-18" fill="#3A403F" mask="url(#mask-2)"></path>
                    <path d="M30.8966621,63.9998345 L28.6897655,63.9998345 L28.6897655,60.5819034 C28.6897655,57.9998345 27.8870069,55.530869 26.3686621,53.4420414 L19.8621793,44.4963862 L19.8621793,36.4136276 L22.0690759,36.4136276 L22.0690759,43.7791448 L28.1529379,52.1443862 C29.9476966,54.6122483 30.8966621,57.5297655 30.8966621,60.5819034 L30.8966621,63.9998345 Z" id="Fill-19" fill="#3A403F" mask="url(#mask-2)"></path>
                    <path d="M2.2070069,63.9998345 L0.000110344828,63.9998345 L0.000110344828,50.7584552 C0.000110344828,46.4991448 3.46493793,43.0343172 7.72424828,43.0343172 L17.6552828,43.0343172 L17.6552828,45.2412138 L7.72424828,45.2412138 C4.68204138,45.2412138 2.2070069,47.7162483 2.2070069,50.7584552 L2.2070069,63.9998345 Z" id="Fill-20" fill="#3A403F" mask="url(#mask-2)"></path>
                    <path d="M51.0944,59.7239724 L40.3357793,59.7239724 L39.232331,58.6205241 L39.232331,51.4133517 L36.4819862,50.7253517 L35.6908138,49.3438345 L40.1735724,34.1024552 L41.0872276,33.3201103 C41.2218483,33.3013517 44.4328828,32.9019034 46.6441931,34.8390069 C47.7161931,35.7785931 48.3539862,37.0701793 48.5481931,38.6894897 L54.5266759,38.6894897 C54.7137103,38.6812138 56.7661241,38.6536276 58.1619862,40.0031448 C58.9415724,40.7568 59.3537103,41.8023172 59.3537103,43.0265931 C59.3537103,46.426869 56.412469,47.802869 54.8571586,48.0550069 L54.5040552,45.8756966 C54.7688828,45.8299034 57.1468138,45.3488 57.1468138,43.0265931 C57.1468138,42.4009379 56.9790897,41.9330759 56.6342621,41.5959724 C56.0224,40.9968 54.9228138,40.8903172 54.5575724,40.8958345 L47.5081931,40.8963862 L46.4047448,39.7929379 C46.4047448,38.318731 45.9986759,37.2130759 45.1975724,36.5063172 C44.2381241,35.6594207 42.8814345,35.4950069 42.0687448,35.4817655 L38.1327448,48.8632828 L40.6033655,49.4812138 L41.4392276,50.5515586 L41.4392276,57.5170759 L51.0944,57.5170759 L51.0944,59.7239724 Z" id="Fill-21" fill="#3A403F" mask="url(#mask-2)"></path>
                    <path d="M55.1084138,56.3699862 L54.5726897,54.2287448 C54.6201379,54.2171586 59.5084138,52.9377103 61.7351724,49.0795034 C62.969931,46.9388138 63.1735172,44.3589517 62.3404138,41.4110897 C61.1166897,37.0784 58.854069,34.1680552 55.6165517,32.7611586 C53.2689655,31.7410207 51.2314483,31.9225379 51.2110345,31.9247448 L50.9782069,29.7299862 C51.0764138,29.7217103 61.0714483,28.8019862 64.4645517,40.8108138 C65.4675862,44.3611586 65.1889655,47.5197793 63.6364138,50.1989517 C60.9307586,54.8681931 55.3451034,56.3109517 55.1084138,56.3699862" id="Fill-22" fill="#3A403F" mask="url(#mask-2)"></path>
                    <polygon id="Fill-23" fill="#3A403F" mask="url(#mask-2)" points="58.0601379 64 60.2670345 64 60.2670345 53.2413793 58.0601379 53.2413793"></polygon>
                    <polygon id="Fill-24" fill="#3A403F" mask="url(#mask-2)" points="44.1726897 64 46.3795862 64 46.3795862 59.5172414 44.1726897 59.5172414"></polygon>
                </g>
            </g>
        </g>
    </g>
</svg>